<svg width="23" height="24" viewBox="0 0 23 24" fill="none" xmlns="http://www.w3.org/2000/svg">
<path d="M0.95406 10.9823L0.953941 10.9821L0.952742 10.9803L0.947351 10.972C0.942508 10.9644 0.935289 10.9528 0.926343 10.9376C0.908435 10.907 0.883712 10.862 0.857325 10.8053C0.804347 10.6917 0.745765 10.5337 0.720918 10.3541C0.696131 10.1749 0.705149 9.97628 0.784802 9.77802C0.864175 9.58046 1.01633 9.37661 1.28853 9.19014L1.28858 9.19011C1.56043 9.00365 1.80529 8.93529 2.01809 8.93249C2.23164 8.92968 2.42011 8.99281 2.57826 9.08044C2.73679 9.16828 2.86299 9.27975 2.94991 9.37005C2.99321 9.41503 3.02631 9.45429 3.04836 9.48198C3.05938 9.49582 3.0676 9.50672 3.07294 9.51397L3.07874 9.52198L3.07998 9.52375L3.0801 9.52391L3.08015 9.52399L3.08019 9.52404L6.72663 14.842L6.81476 14.9705L6.89488 14.8368C7.01894 14.6298 7.15451 14.4258 7.3057 14.2247L7.34886 14.1673L7.30824 14.108L2.24717 6.72823L2.24713 6.72816L2.24712 6.72816L2.247 6.72798L2.24581 6.72619L2.24042 6.71789C2.23558 6.7103 2.22837 6.6987 2.21943 6.68344C2.20154 6.6529 2.17685 6.60788 2.15049 6.55129C2.09756 6.43769 2.03904 6.27981 2.01424 6.10029C1.98949 5.9212 1.99853 5.72265 2.07815 5.52444C2.1575 5.32693 2.30958 5.12312 2.58161 4.93665L2.58163 4.93663C2.85349 4.75018 3.09835 4.68182 3.31115 4.67902C3.52469 4.6762 3.71317 4.73934 3.87131 4.82697C4.02984 4.9148 4.15605 5.02628 4.24297 5.11658C4.28626 5.16156 4.31936 5.20082 4.34142 5.22851C4.35243 5.24234 4.36066 5.25325 4.36599 5.2605L4.3718 5.26851L4.37304 5.27028L4.37316 5.27044L4.37324 5.27057L9.13357 12.2128L9.19504 12.3024L9.27925 12.2337C9.4559 12.0897 9.63621 11.9453 9.8218 11.8038L9.89744 11.7462L9.84366 11.6678L4.32495 3.61851L4.32491 3.61845L4.3249 3.61844L4.32478 3.61826L4.32358 3.61647L4.3182 3.60817C4.31336 3.60058 4.30615 3.58898 4.29721 3.57372C4.27932 3.54318 4.25462 3.49816 4.22826 3.44157C4.17534 3.32796 4.11682 3.17009 4.09201 2.99057C4.06727 2.81148 4.0763 2.61292 4.15593 2.41472C4.23528 2.21721 4.38736 2.01339 4.65939 1.82693L4.65941 1.82691C4.93127 1.64045 5.17613 1.5721 5.38892 1.56929C5.60247 1.56648 5.79094 1.62962 5.94909 1.71724C6.10762 1.80508 6.23383 1.91656 6.32075 2.00686C6.36404 2.05184 6.39714 2.0911 6.41919 2.11879C6.43021 2.13262 6.43844 2.14353 6.44377 2.15078L6.44957 2.15879L6.45082 2.16055L6.45093 2.16072L6.45102 2.16084L11.9697 10.2086L12.0234 10.287L12.1044 10.2373C12.2497 10.1483 12.393 10.0684 12.5384 9.98733C12.594 9.95634 12.6498 9.92519 12.7062 9.89329L12.8012 9.83962L12.7395 9.74969L7.5812 2.22753L7.58116 2.22747L7.58115 2.22747L7.58103 2.22729L7.57983 2.22549L7.57445 2.21719C7.56961 2.20961 7.5624 2.198 7.55346 2.18275C7.53557 2.1522 7.51087 2.10718 7.4845 2.05059C7.43156 1.93698 7.37302 1.7791 7.34817 1.59957C7.32339 1.42048 7.33237 1.22192 7.4119 1.02371C7.49116 0.826205 7.64311 0.622396 7.91497 0.435939C8.18682 0.249482 8.43168 0.181127 8.64448 0.178322C8.85803 0.175508 9.0465 0.238647 9.20465 0.326273C9.36318 0.41411 9.48938 0.525587 9.5763 0.615888C9.6196 0.660865 9.6527 0.700123 9.67475 0.727817C9.68577 0.74165 9.69399 0.752558 9.69933 0.759803L9.70513 0.767817L9.70637 0.769582L9.70649 0.769746L9.70658 0.769872L15.1606 8.7239L15.1607 8.72391L15.9337 9.85171C12.5238 12.2574 12.2149 16.7074 14.1898 19.5878C14.2978 19.7454 14.4222 19.842 14.5513 19.8939C14.6798 19.9456 14.8064 19.9505 14.9157 19.9354C15.0246 19.9205 15.1182 19.8855 15.1841 19.8548C15.2172 19.8394 15.2439 19.8248 15.2627 19.8139C15.2721 19.8084 15.2795 19.8038 15.2848 19.8004L15.2911 19.7963L15.293 19.795L15.2936 19.7946L15.2939 19.7944L15.294 19.7944C15.294 19.7943 15.2941 19.7943 15.2376 19.7118L15.2941 19.7943L15.3766 19.7378L15.3201 19.6553C14.1548 17.9556 13.7541 16.1575 14.0635 14.4975C14.3729 12.8375 15.3945 11.3047 17.0941 10.1394L17.1486 10.1021L17.1356 10.0374L16.1224 4.96652L16.1227 4.96646L16.1206 4.95899L16.1206 4.95898L16.1206 4.95894L16.1206 4.95886L16.1205 4.95865L16.12 4.95657L16.1175 4.94698C16.1154 4.93825 16.1122 4.92494 16.1086 4.90763C16.1014 4.87296 16.0924 4.8224 16.0855 4.76035C16.0716 4.63576 16.0666 4.46741 16.1003 4.28929C16.134 4.11159 16.2059 3.92622 16.3445 3.7637C16.4826 3.60176 16.6916 3.45706 17.0086 3.36705C17.3258 3.2772 17.5797 3.29064 17.7823 3.35597C17.9857 3.42153 18.1442 3.54159 18.2662 3.67516C18.3884 3.80905 18.4725 3.95501 18.5261 4.06836C18.5528 4.12482 18.5716 4.17259 18.5837 4.20588C18.5897 4.22251 18.594 4.23548 18.5968 4.24405L18.5997 4.2535L18.6003 4.25557L18.6004 4.25577L18.6003 4.2558L18.6018 4.26038L19.772 7.73538C20.2361 9.11387 20.7317 10.4924 21.3885 11.7977C23.2115 15.4203 22.1225 19.9226 18.6852 22.2807C14.9356 24.8516 9.80964 23.8958 7.23809 20.1469L0.954107 10.9824L0.95406 10.9823Z" fill="#EACCB9" stroke="#2D2D2D" stroke-width="0.2"/>
</svg>
